# xmcd
#
# Track frame offsets:
#	182
#	40315
#	68112
#	97837
#	120220
#	153727
#	183277
#	199562
#	229695
#
# Disc length: 3511 seconds
#
# Revision: 2
# Processed by: cddbd v1.5.2PL0 Copyright (c) Steve Scherf et al.
# Submitted via: audiograbber 1.83.01
#
DISCID=680db509
DTITLE=Espace - Anti-Stress
DYEAR=1998
DGENRE=New Age
TTITLE0=Spaziergang an der Meeresküste
TTITLE1=Wenn die Natur Erwacht
TTITLE2=Sommerfrische
TTITLE3=Die Sonne und das Meer
TTITLE4=Zwischen Himmel und Wasser
TTITLE5=Hell erklingt die Melodie
TTITLE6=Goldene Dämmerung
TTITLE7=Sonnenuntergang
TTITLE8=Romantik der Wellen
EXTD=
EXTT0=
EXTT1=
EXTT2=
EXTT3=
EXTT4=
EXTT5=
EXTT6=
EXTT7=
EXTT8=
PLAYORDER=
